<?xml version="1.0" encoding="UTF-8"?>
<svg id="Layer_1" xmlns="http://www.w3.org/2000/svg" version="1.1" viewBox="0 0 1080 271">
  <!-- Generator: Adobe Illustrator 29.4.0, SVG Export Plug-In . SVG Version: 2.1.0 Build 152)  -->
  <defs>
    <style>
      .st0 {
        fill: #fefdf3;
      }
    </style>
  </defs>
  <g>
    <path class="st0" d="M595.29,147.13h17.22c0,7.77,5.46,12.37,14.7,12.37s14.14-3.34,14.14-9.16c0-7.36-8.26-8.75-17.5-10.28-12.18-1.95-26.74-4.3-26.74-20.28,0-13.2,11.2-21.12,30.1-21.12s29.96,8.47,29.96,22.92h-17.22c0-7.36-4.62-11.53-12.74-11.53-7.7,0-12.32,3.06-12.32,8.2,0,6.25,7.7,7.5,16.66,9.03,12.46,2.08,27.58,4.58,27.58,20.97,0,14.31-11.9,22.92-31.92,22.92s-31.92-8.89-31.92-24.04h0Z"/>
    <path class="st0" d="M669.64,69.34h18.48v17.36h-18.48v-17.36ZM669.64,100.03h18.48v69.73h-18.48v-69.73Z"/>
    <path class="st0" d="M911.16,62.81h18.48v106.96h-18.48V62.81Z"/>
    <path class="st0" d="M1009.86,136.99h-51.24c.7,12.78,6.86,20.28,16.8,20.28,8.68,0,14.7-4.73,16.52-12.37h17.92c-2.52,16.53-15.41,26.26-34.44,26.26-21.84,0-34.72-13.48-34.72-36.25s12.88-36.25,34.72-36.25,34.44,13.33,34.44,36.25v2.08h0ZM958.75,130.74h33.04c-1.12-11.67-7.14-18.34-16.38-18.34s-15.4,6.67-16.66,18.34Z"/>
    <path class="st0" d="M1016.16,147.13h17.22c0,7.77,5.46,12.37,14.7,12.37s14.14-3.34,14.14-9.16c0-7.36-8.26-8.75-17.5-10.28-12.18-1.95-26.74-4.3-26.74-20.28,0-13.2,11.2-21.12,30.1-21.12s29.96,8.47,29.96,22.92h-17.22c0-7.36-4.62-11.53-12.74-11.53-7.7,0-12.32,3.06-12.32,8.2,0,6.25,7.7,7.5,16.66,9.03,12.46,2.08,27.58,4.58,27.58,20.97,0,14.31-11.9,22.92-31.92,22.92s-31.92-8.89-31.92-24.04h0Z"/>
    <path class="st0" d="M871.94,98.64c-12.82,0-21.42,6.32-24.15,17.28h-1.21v-15.89h-18.46v101.68h18.48v-55.98h.28c0,15.97,9.38,25.42,25.06,25.42,17.64,0,28.14-13.48,28.14-36.25s-10.5-36.26-28.15-36.26h.01ZM863.4,156.57c-11.2,0-17.78-8.89-17.78-21.67s6.58-21.67,17.78-21.67,17.78,8.05,17.78,21.67-6.58,21.67-17.78,21.67Z"/>
    <path class="st0" d="M790.05,98.64c-12.14,0-19.88,7.25-21.61,19.89h-1.06c-1.88-12.37-10.13-19.89-22.97-19.89-11.51,0-19.31,6.26-21.81,17.28h-1.15v-15.89h-18.48v69.73h18.48v-38.48c0-11.39,5.46-18.19,14.85-18.19,8.26,0,13.02,5.28,13.02,14.31v42.37h18.48v-38.48c0-11.39,5.46-18.19,14.7-18.19,8.26,0,13.16,5.28,13.16,14.31v42.37h18.48v-43.2c-.02-17.64-8.98-27.93-24.1-27.93h.01Z"/>
    <polygon class="st0" points="846.86 145.45 844.66 145.45 844.66 153.14 848.58 153.14 846.86 145.45"/>
  </g>
  <g>
    <path class="st0" d="M246.54,134.49c0-22.36,12.6-35.7,33.6-35.7,16.94,0,28.42,8.75,31.79,24.17h-11.48c-3.08-9.44-10.08-14.86-20.31-14.86-13.72,0-21.84,9.86-21.84,26.39s8.12,26.39,21.84,26.39c10.78,0,18.06-5.97,20.72-16.25h11.48c-3.08,16.25-14.56,25.7-32.2,25.7-21,0-33.6-13.34-33.6-35.84h0Z"/>
    <path class="st0" d="M317.25,134.49c0-22.36,12.74-35.7,34.02-35.7s33.88,13.33,33.88,35.7-12.6,35.84-33.88,35.84-34.02-13.34-34.02-35.84ZM373.53,134.49c0-16.53-8.26-26.39-22.26-26.39s-22.26,9.86-22.26,26.39,8.26,26.39,22.26,26.39,22.26-9.72,22.26-26.39Z"/>
    <path class="st0" d="M484.56,108.65v40.15c0,7.64,4.62,12.09,12.6,12.09,3.5,0,7.14-.83,9.94-2.22v8.89c-3.64,1.67-8.68,2.78-13.58,2.78-12.88,0-20.44-7.64-20.44-20.84v-40.84h-11.2v-8.47h12.04v-23.9h10.63l.03,23.89h23.64v8.47h-23.66Z"/>
    <path class="st0" d="M431.21,98.79c-12,0-20.08,6.21-22.65,17.03h-1.16v-15.64h-11.48v68.76h11.48v-37.64c0-14.59,7.28-23.2,19.74-23.2,11.2,0,17.64,6.81,17.64,18.34v42.5h11.48v-42.78c0-17.23-9.23-27.37-25.05-27.37Z"/>
    <path class="st0" d="M565.63,100.18v15.64h-1.04c-2.57-10.81-11.51-17.03-24.86-17.03-18.48,0-29.4,13.33-29.4,35.7s10.92,35.84,29.4,35.84c13.31,0,22.24-6.28,24.83-17.06h1.07v15.68h11.48v-68.76h-11.48ZM565.38,122.68h-.03v-.1l.03.1ZM544.21,160.88c-14,0-22.12-9.72-22.12-26.39s8.12-26.39,22.12-26.39,22.26,10.14,22.26,26.39-8.12,26.39-22.26,26.39Z"/>
  </g>
  <path class="st0" d="M189.31,152.13l-41.13-40.81,35.83-35.57c1.88-1.87,1.88-4.91,0-6.78L117.97,3.43c-1.91-1.9-5.02-1.9-6.93,0L1.02,112.62c-1.84,1.83-1.89,4.76-.17,6.66h0l.07.08.03.03h0l41.17,40.85h0l-30.51-30.27,30.51,30.28L6.31,195.77c-1.91,1.9-1.91,4.98,0,6.87l65.99,65.5c1.91,1.9,5.02,1.9,6.93,0l110.07-109.23c1.88-1.85,1.88-4.89,0-6.77h.01ZM120.35,85.22h-.07.07ZM45.32,157.07L5.92,117.98l110.88-31.76c-.15.12-.32.23-.47.37,0,0-71.01,70.48-71.01,70.48Z"/>
</svg>